<?xml version="1.0" standalone="no"?>
<!DOCTYPE svg PUBLIC "-//W3C//DTD SVG 20010904//EN"
 "http://www.w3.org/TR/2001/REC-SVG-20010904/DTD/svg10.dtd">
<svg version="1.0" xmlns="http://www.w3.org/2000/svg"
 width="1147.000000pt" height="340.000000pt" viewBox="0 0 1147.000000 340.000000"
 preserveAspectRatio="xMidYMid meet">
<metadata>
Created by potrace 1.15, written by Peter Selinger 2001-2017
</metadata>
<g transform="translate(0.000000,340.000000) scale(0.100000,-0.100000)"
fill="#000000" stroke="none">
<path d="M983 3360 c96 -61 141 -172 135 -333 l-4 -102 -552 -1404 c-304 -772
-551 -1408 -550 -1413 2 -4 41 24 88 63 169 140 345 243 472 275 59 15 143 15
180 0 13 -6 49 75 226 521 l210 528 443 0 443 0 59 -210 c55 -198 58 -215 53
-292 -3 -52 -13 -100 -27 -132 -22 -52 -97 -131 -124 -131 -8 0 -15 -4 -15
-10 0 -7 205 -10 596 -10 394 0 593 3 589 10 -3 6 -19 10 -34 10 -49 0 -151
60 -221 129 -134 132 -142 149 -550 1156 -205 506 -375 926 -377 933 -4 9 807
12 4033 12 l4039 0 -2 -107 c-2 -60 -4 -472 -6 -918 -3 -804 -3 -810 -24 -850
-36 -68 -117 -176 -212 -282 l-92 -103 616 0 c338 0 615 2 615 5 0 2 -21 13
-46 24 -80 36 -195 170 -292 342 l-32 56 0 917 0 916 294 0 295 0 6 48 c24
171 103 298 230 365 27 15 -418 16 -5239 17 l-5270 0 47 -30z m712 -1005 c59
-137 110 -258 112 -267 5 -17 -10 -18 -222 -18 -212 0 -227 1 -221 18 12 32
221 520 222 519 1 -1 50 -114 109 -252z"/>
<path d="M7930 1440 l0 -1444 28 45 c81 125 247 219 389 219 l43 0 0 270 c0
149 2 270 4 270 2 0 28 -11 57 -24 134 -59 301 -90 489 -90 134 -1 154 2 264
32 217 59 415 170 543 306 169 178 244 364 263 651 16 252 -19 458 -110 641
-171 343 -502 514 -999 514 -134 0 -234 -16 -335 -54 -78 -30 -114 -50 -206
-116 -36 -26 -80 -52 -99 -59 -45 -15 -103 -14 -123 2 -9 6 -57 71 -108 142
-51 72 -94 132 -96 134 -2 2 -4 -645 -4 -1439z m1179 889 c155 -37 326 -175
395 -321 87 -183 86 -353 -5 -537 -99 -201 -308 -331 -531 -331 -105 0 -168
15 -267 62 -103 49 -218 158 -269 255 -90 171 -95 379 -11 546 131 259 410
392 688 326z"/>
<path d="M3645 2786 c-185 -35 -361 -105 -496 -197 -88 -59 -197 -172 -252
-260 -193 -311 -199 -758 -13 -1126 183 -364 512 -541 965 -520 146 7 256 26
381 67 149 49 309 139 382 217 l27 28 -51 80 c-29 44 -80 124 -115 178 l-63
97 -64 -65 c-111 -113 -262 -166 -481 -168 -125 -2 -134 0 -232 34 -130 46
-201 88 -279 166 -74 75 -125 170 -150 279 -25 114 -16 321 20 430 79 246 262
370 555 376 133 3 195 -16 256 -77 85 -85 103 -241 50 -440 -33 -121 -39 -152
-32 -145 2 3 120 185 261 404 292 454 278 416 185 500 -60 54 -162 98 -294
126 -129 28 -452 37 -560 16z"/>
<path d="M5305 2775 c-289 -61 -509 -189 -660 -385 -156 -203 -226 -512 -180
-795 63 -388 254 -678 540 -815 370 -179 951 -110 1274 152 34 27 61 54 61 59
0 8 -142 234 -222 353 -5 7 -14 2 -24 -14 -54 -78 -171 -154 -290 -185 -33 -9
-110 -21 -172 -27 -104 -11 -120 -10 -210 10 -264 59 -446 218 -508 443 -28
100 -25 319 4 424 31 108 75 187 143 254 103 104 237 150 438 153 91 2 113 -1
158 -21 58 -26 113 -80 140 -138 28 -62 23 -252 -10 -373 -14 -52 -29 -104
-33 -115 -6 -18 -5 -18 8 -5 22 23 500 770 505 791 7 24 -29 81 -72 113 -51
39 -149 83 -237 105 -184 47 -472 55 -653 16z"/>
<path d="M6334 2743 c7 -34 31 -332 47 -573 16 -229 16 -858 1 -1030 -13 -142
-39 -353 -48 -382 -5 -17 34 -18 726 -18 l731 0 -7 23 c-4 12 -42 145 -84 295
-43 150 -80 275 -83 279 -3 3 -37 -18 -74 -46 -138 -104 -124 -101 -465 -101
l-298 0 0 185 0 185 195 0 c108 0 195 4 195 9 0 5 5 55 11 112 19 188 48 295
88 326 13 10 -35 12 -231 13 l-248 0 0 155 0 155 318 0 c181 0 332 -4 353 -10
56 -16 101 -50 138 -107 19 -29 36 -51 38 -49 5 4 183 588 183 599 0 4 -336 7
-746 7 l-746 0 6 -27z"/>
</g>
</svg>
