<?xml version="1.0" standalone="no"?>
<!DOCTYPE svg PUBLIC "-//W3C//DTD SVG 20010904//EN"
 "http://www.w3.org/TR/2001/REC-SVG-20010904/DTD/svg10.dtd">
<svg version="1.0" xmlns="http://www.w3.org/2000/svg"
 width="469.000000pt" height="148.000000pt" viewBox="0 0 469.000000 148.000000"
 preserveAspectRatio="xMidYMid meet">
<metadata>
Created by potrace 1.15, written by Peter Selinger 2001-2017
</metadata>
<g transform="translate(0.000000,148.000000) scale(0.100000,-0.100000)"
fill="#000000" stroke="none">
<path d="M0 740 l0 -740 2345 0 2345 0 0 740 0 740 -2345 0 -2345 0 0 -740z
m1845 468 c0 -176 3 -232 13 -235 9 -4 12 40 12 196 l0 201 95 0 95 0 2 -192
3 -193 48 -3 47 -3 0 195 0 196 148 0 148 0 57 -57 56 -58 3 -135 3 -135 45 0
45 0 3 135 3 135 56 58 57 57 91 0 91 0 57 -57 56 -58 3 -135 3 -135 455 -3
455 -3 -225 -95 c-206 -87 -262 -114 -234 -114 16 0 894 147 929 156 17 4 28
4 25 1 -3 -3 -63 -22 -135 -42 -119 -34 -321 -93 -720 -210 -82 -24 -249 -73
-370 -108 -270 -80 -603 -176 -630 -183 -11 -3 67 79 174 183 l194 189 -106
-4 c-72 -3 -112 0 -121 7 -17 14 -303 14 -312 0 -8 -13 -297 -12 -311 2 -10
10 -132 8 -294 -6 -52 -5 -84 -3 -99 5 -12 6 -24 9 -27 6 -7 -7 178 -207 186
-201 4 2 50 -39 102 -92 52 -53 87 -93 79 -90 -9 2 -52 15 -95 27 -44 12 -109
33 -145 47 -36 13 -103 33 -148 44 -74 17 -223 60 -787 225 -82 25 -267 78
-410 120 -256 73 -305 89 -255 80 127 -24 923 -156 936 -156 35 0 -3 19 -226
114 l-225 95 453 1 452 0 0 132 0 133 97 97 c54 54 98 98 98 98 0 0 0 -104 0
-232z"/>
<path d="M1746 1301 l-59 -60 2 -183 2 -183 47 -47 46 -48 71 0 71 0 52 53 52
53 0 227 0 227 -60 0 -60 0 0 -200 0 -200 -50 0 -50 0 -2 210 -3 211 -59 -60z"/>
<path d="M2195 1327 c-3 -7 -4 -131 -3 -277 l3 -265 119 -3 120 -3 53 53 53
52 0 176 0 176 -53 52 -53 52 -117 0 c-86 0 -119 -3 -122 -13z m218 -149 c2
-13 4 -70 3 -128 l-2 -105 -47 -3 -47 -3 0 130 0 131 44 0 c37 0 45 -3 49 -22z"/>
<path d="M2752 1287 l-52 -53 0 -175 0 -175 53 -52 53 -52 70 0 70 0 52 53 52
53 0 175 0 175 -53 52 -53 52 -70 0 -70 0 -52 -53z m168 -217 l0 -130 -45 0
-45 0 0 130 0 130 45 0 45 0 0 -130z"/>
<path d="M912 945 c3 -3 144 -64 314 -135 170 -71 305 -130 299 -130 -5 0
-154 25 -330 55 -318 54 -353 60 -343 50 2 -3 130 -41 284 -86 153 -44 376
-109 494 -144 338 -100 350 -104 350 -95 0 5 -77 82 -171 172 l-171 163 37 5
37 5 -31 29 c-25 24 -31 38 -31 73 l0 43 -372 0 c-204 0 -369 -2 -366 -5z"/>
<path d="M2070 913 c0 -29 -8 -45 -37 -75 l-37 -38 82 0 82 0 0 75 0 75 -45 0
-45 0 0 -37z"/>
<path d="M2580 911 c0 -33 -7 -46 -37 -75 l-38 -36 114 0 113 0 -36 40 c-27
30 -36 49 -36 75 0 34 -1 35 -40 35 -40 0 -40 0 -40 -39z"/>
<path d="M3090 913 c0 -29 -8 -45 -37 -75 l-37 -38 39 0 40 -1 -180 -176 c-99
-97 -171 -173 -160 -170 11 4 175 52 365 107 190 55 408 119 485 141 214 63
291 87 276 88 -8 1 -163 -24 -344 -55 -181 -30 -331 -53 -334 -51 -2 3 6 8 19
12 33 10 548 225 578 241 21 11 -29 13 -342 14 l-368 0 0 -37z"/>
</g>
</svg>
