<?xml version="1.0" standalone="no"?>
<!DOCTYPE svg PUBLIC "-//W3C//DTD SVG 20010904//EN"
 "http://www.w3.org/TR/2001/REC-SVG-20010904/DTD/svg10.dtd">
<svg version="1.0" xmlns="http://www.w3.org/2000/svg"
 width="444.000000pt" height="113.000000pt" viewBox="0 0 444.000000 113.000000"
 preserveAspectRatio="xMidYMid meet">
<metadata>
Created by potrace 1.15, written by Peter Selinger 2001-2017
</metadata>
<g transform="translate(0.000000,113.000000) scale(0.100000,-0.100000)"
fill="#000000" stroke="none">
<path d="M1562 997 l-102 -104 0 -107 0 -106 -436 0 -436 0 28 -28 c17 -16 88
-53 169 -87 143 -60 172 -75 142 -75 -10 0 -194 29 -409 65 -215 36 -396 64
-402 62 -6 -2 11 -10 36 -17 26 -8 43 -17 38 -20 -10 -6 113 -47 300 -101 41
-11 111 -32 155 -45 69 -20 401 -116 550 -159 28 -8 102 -30 165 -49 63 -19
131 -39 150 -44 19 -6 123 -37 230 -71 201 -63 230 -69 230 -50 0 7 -71 81
-157 164 -117 114 -155 156 -147 165 18 18 131 34 229 32 118 -2 372 -3 560
-1 226 3 349 -14 306 -41 -7 -4 -77 -71 -156 -150 -129 -128 -142 -144 -129
-158 18 -17 -27 -29 759 199 99 29 200 58 225 65 25 7 74 21 110 32 204 60
432 124 550 155 74 19 158 45 185 58 47 21 49 22 25 29 -19 6 -21 8 -6 9 11 1
17 3 15 6 -3 2 -179 -25 -392 -60 -214 -36 -395 -65 -404 -65 -29 0 -2 15 127
69 138 58 152 67 130 81 -12 8 -13 10 -1 10 8 0 11 3 7 8 -4 4 -198 7 -431 7
-233 0 -426 2 -428 5 -3 3 -7 55 -9 115 -3 61 -10 119 -16 131 -6 12 -39 46
-72 78 l-61 56 -82 0 -83 0 -62 -63 -62 -63 0 -127 0 -127 -35 0 -35 0 -1 63
c-1 34 -4 88 -8 120 -6 55 -9 61 -75 127 l-70 70 -143 0 -143 0 -2 -187 -3
-188 -37 -3 c-36 -3 -38 -1 -38 25 -1 117 -13 284 -22 316 l-11 37 -99 0 c-90
0 -99 2 -106 20 -7 18 -20 8 -110 -83z m274 -2 c-2 -19 1 -50 7 -70 7 -25 8
-39 0 -43 -9 -6 -10 -31 -3 -57 2 -5 -1 -19 -5 -29 -5 -11 -4 -31 3 -48 5 -15
6 -26 1 -23 -5 4 -7 -21 -5 -57 5 -70 14 -108 27 -108 10 0 24 48 21 68 -2 8
12 12 43 12 33 0 44 -3 39 -12 -5 -8 -2 -9 9 -5 12 5 17 1 17 -12 0 -22 -18
-32 -40 -21 -8 4 -26 1 -39 -6 l-23 -12 21 -21 c11 -11 27 -18 36 -15 10 4 15
0 15 -15 0 -12 -6 -21 -16 -21 -8 0 -12 -5 -9 -10 10 -15 -5 -12 -22 6 -10 9
-25 13 -39 10 -12 -3 -25 -2 -28 3 -3 5 -25 -9 -47 -30 -41 -39 -42 -39 -56
-19 -13 19 -24 21 -89 19 l-74 -2 -52 50 -53 49 3 159 c3 113 7 162 17 171 7
7 15 10 19 7 3 -3 10 6 15 21 6 14 15 26 21 26 6 0 23 15 39 33 23 25 32 29
42 20 10 -10 9 -15 -1 -28 -8 -9 -9 -20 -4 -27 8 -12 10 -266 2 -312 -2 -14 4
-19 27 -21 l30 -2 -3 206 -3 206 80 -3 81 -4 -4 -33z m474 -12 l50 -46 0 -130
c0 -114 -2 -128 -15 -117 -12 10 -15 10 -15 -3 0 -9 8 -17 17 -19 10 -2 18
-12 19 -23 0 -11 1 -30 2 -42 3 -34 66 -73 102 -63 32 9 45 3 29 -16 -7 -8 -7
-14 1 -19 5 -3 13 1 16 9 7 19 44 3 44 -19 0 -12 -21 -15 -121 -15 -113 0
-123 -2 -141 -22 -15 -17 -21 -19 -27 -9 -6 9 -42 12 -135 12 -69 0 -130 -2
-135 -6 -6 -3 -9 3 -8 14 0 11 5 17 9 15 4 -3 8 120 8 273 l0 278 125 -3 126
-4 49 -45z m330 -33 c0 -11 -3 -20 -7 -20 -5 0 -9 -15 -10 -32 -2 -18 -7 -34
-12 -36 -5 -2 -7 -12 -4 -22 4 -14 0 -20 -10 -20 -21 0 -47 -27 -46 -48 0 -11
2 -12 6 -4 5 12 45 17 55 6 4 -3 2 -20 -3 -37 -6 -21 -5 -33 1 -35 5 -2 10
-15 10 -28 0 -15 6 -24 16 -24 12 0 15 6 10 25 -4 14 -2 25 3 25 5 0 11 -11
14 -26 4 -22 0 -26 -26 -31 -27 -5 -28 -7 -12 -14 17 -7 18 -8 3 -8 -10 -1
-18 -5 -18 -11 0 -5 8 -10 18 -10 14 0 15 -2 2 -10 -12 -8 -8 -10 15 -11 20
-1 24 -3 11 -6 -20 -5 -46 -27 -46 -37 0 -12 30 -5 31 7 0 9 2 10 6 0 2 -7 9
-13 14 -13 4 0 6 7 3 15 -4 10 0 15 15 15 12 0 21 5 21 11 0 5 4 8 9 4 5 -3
16 1 24 9 8 8 17 13 19 10 7 -6 3 27 -4 46 -13 32 -19 228 -8 235 6 4 13 5 15
3 2 -2 5 -58 6 -125 0 -66 5 -127 10 -134 8 -11 9 -9 7 6 -2 15 2 19 16 17 11
-2 15 1 11 7 -3 6 -1 11 4 11 6 0 12 -17 12 -37 l2 -38 6 40 c5 30 8 36 14 22
11 -29 8 -67 -5 -67 -7 0 -5 -5 5 -11 14 -8 22 -8 30 0 15 15 27 14 27 -2 0
-7 -9 -18 -20 -25 -11 -7 -33 -30 -49 -52 -15 -22 -31 -37 -34 -33 -4 3 -40 5
-82 5 -62 -1 -75 2 -75 15 0 18 -79 93 -97 93 -10 0 -13 43 -13 184 0 205 -7
184 70 206 39 12 40 11 40 -10z m1079 -300 c-16 -9 -189 -82 -439 -185 -146
-60 -250 -89 -235 -65 3 5 12 7 20 4 8 -4 18 1 21 10 3 9 10 14 14 11 5 -3 11
-1 15 5 4 6 11 8 16 4 6 -3 8 6 5 22 -3 15 -11 31 -17 35 -7 4 -9 16 -6 28 3
12 1 21 -4 21 -5 0 -9 6 -9 14 0 7 -7 19 -15 26 -20 16 -19 40 1 40 9 0 12 -5
8 -12 -5 -8 -2 -9 10 -5 10 4 19 1 22 -8 7 -18 41 -20 47 -2 3 9 7 9 19 -1 13
-10 17 -10 22 4 9 23 7 34 -5 34 -5 0 -7 -4 -4 -10 3 -5 0 -10 -8 -10 -8 0
-18 7 -21 16 -5 12 0 15 21 12 29 -3 57 -37 36 -45 -10 -4 -10 -7 0 -18 9 -9
17 -10 32 -3 l20 11 -20 -20 c-16 -16 -22 -18 -28 -7 -9 15 -27 19 -27 6 0 -5
16 -17 35 -28 31 -17 37 -17 45 -4 13 20 13 4 0 -21 -10 -18 -9 -18 17 -7 15
7 34 21 42 31 9 13 16 16 21 7 5 -8 18 -7 48 6 45 17 56 44 20 45 -13 0 -17 3
-10 6 6 2 9 10 6 16 -5 8 -2 8 7 0 14 -14 30 -17 28 -5 -4 23 4 32 26 32 14 0
28 -6 31 -14 6 -15 61 -14 92 3 35 19 131 39 101 21z m-2427 -10 c49 -1 91 -6
94 -11 3 -6 12 -5 22 3 11 10 16 10 19 1 2 -7 11 -9 19 -6 22 8 17 -35 -6 -47
-16 -9 -18 -8 -14 5 7 18 3 19 -30 4 -13 -6 -27 -20 -29 -30 -3 -11 -1 -17 4
-13 5 3 9 1 9 -4 0 -5 9 -12 20 -15 11 -3 20 -1 20 5 0 6 7 8 15 4 8 -3 15 -1
15 4 0 17 22 11 42 -12 20 -23 20 -23 -1 -26 -12 -2 -18 -8 -14 -18 3 -7 9
-11 14 -8 5 3 9 0 9 -5 0 -6 4 -11 9 -11 5 0 35 -24 67 -52 153 -140 211 -193
234 -215 l25 -24 -45 6 c-25 4 -46 10 -48 15 -2 4 -11 6 -21 3 -10 -2 -43 3
-73 12 -30 8 -63 12 -73 9 -12 -5 -16 -4 -12 3 9 15 -19 24 -50 17 -20 -5 -24
-4 -18 6 6 10 4 12 -8 7 -20 -8 -87 11 -87 24 0 6 -4 8 -9 5 -13 -9 -71 5 -65
15 5 9 -16 14 -49 11 -10 -1 -16 2 -12 7 3 5 -5 13 -17 17 -13 4 -26 12 -30
18 -6 8 -8 8 -8 -1 0 -7 8 -17 18 -22 25 -15 9 -13 -45 5 -26 9 -52 23 -56 30
-4 8 -15 14 -22 14 -8 0 -15 8 -14 18 0 10 3 12 6 4 2 -6 9 -10 14 -6 13 7 1
24 -17 24 -8 0 -14 -8 -15 -17 0 -17 -1 -17 -7 0 -7 16 -8 16 -22 -3 -8 -11
-21 -20 -29 -20 -8 0 -11 3 -7 7 3 4 -4 13 -16 20 -18 10 -20 12 -6 13 10 0
17 3 17 8 -3 17 4 19 49 10 26 -5 58 -11 72 -13 117 -16 176 -28 181 -37 4 -6
15 -8 25 -4 11 3 26 1 34 -4 9 -5 19 -5 27 2 9 7 13 7 13 -1 0 -7 5 -9 10 -6
16 10 12 55 -5 55 -9 0 -18 7 -22 16 -3 8 -12 13 -19 10 -16 -6 -20 29 -4 39
6 3 7 -1 4 -9 -3 -9 -3 -16 1 -16 10 0 35 27 35 39 0 16 -37 33 -45 21 -3 -5
0 -10 7 -10 8 0 6 -5 -5 -11 -10 -6 -26 -8 -35 -5 -15 5 -15 5 1 -8 19 -15 10
-28 -30 -40 -19 -6 -22 -4 -16 11 5 14 3 15 -7 6 -18 -17 -3 -33 31 -33 18 0
28 4 24 10 -3 6 -1 10 4 10 6 0 11 -4 11 -10 0 -5 8 -10 18 -11 15 0 14 -1 -2
-8 -19 -7 -19 -8 2 -13 12 -4 22 -12 22 -18 0 -9 -4 -9 -17 1 -9 8 -19 13 -22
12 -8 -4 -41 6 -76 22 -16 8 -75 32 -130 54 -180 70 -367 149 -375 158 -8 7
299 9 522 3z m2708 -94 c0 -2 -38 -13 -85 -26 -46 -12 -82 -27 -79 -32 3 -5
-6 -6 -22 -2 -18 5 -25 3 -20 -4 4 -6 -2 -8 -16 -4 -15 4 -19 2 -13 -7 6 -10
2 -11 -15 -6 -16 5 -20 4 -15 -5 5 -9 1 -10 -15 -5 -17 5 -20 4 -15 -5 6 -10
1 -12 -18 -8 -15 3 -24 2 -22 -2 6 -10 -43 -23 -55 -15 -6 4 -10 2 -10 -3 0
-11 1 -10 -421 -132 -207 -60 -354 -98 -364 -93 -13 4 -16 3 -11 -5 4 -7 0
-12 -11 -13 -58 -4 -87 -9 -167 -33 -49 -14 -91 -24 -93 -23 -1 2 24 29 57 61
51 49 62 56 79 47 28 -15 36 -14 21 4 -10 12 -3 25 39 73 67 78 77 86 77 63 0
-11 -6 -17 -13 -14 -7 3 -13 0 -13 -6 0 -6 7 -11 15 -11 9 0 12 -6 9 -15 -4
-8 -13 -15 -21 -15 -8 0 -11 -4 -8 -10 3 -5 -4 -10 -16 -10 -19 0 -20 -2 -8
-16 7 -9 22 -20 34 -25 19 -9 19 -9 -2 -5 -18 3 -23 -1 -23 -15 0 -21 20 -20
90 8 l35 13 -32 -4 c-30 -5 -64 16 -49 31 3 3 6 1 6 -5 0 -6 12 -5 32 5 28 15
30 17 14 29 -10 7 -25 10 -33 7 -12 -5 -14 -1 -8 18 11 35 20 42 43 30 10 -6
22 -8 24 -5 3 3 31 7 62 9 59 4 71 -8 31 -32 -29 -18 -42 -16 -19 3 18 15 17
15 -6 2 -27 -16 -54 -13 -44 4 4 6 2 8 -4 5 -14 -9 -3 -47 14 -47 8 0 14 -4
14 -10 0 -5 -6 -10 -14 -10 -8 0 -16 -7 -20 -15 -7 -20 -11 -20 136 22 91 26
127 41 124 50 -3 7 -1 13 3 13 5 0 11 -5 13 -10 2 -6 53 4 127 25 117 34 171
54 144 55 -22 0 -14 20 8 20 11 0 17 -4 14 -10 -9 -14 11 -12 75 6 107 31 425
112 443 113 9 1 17 -1 17 -3z"/>
</g>
</svg>
